<svg width="512" height="512" viewBox="0 0 512 512" fill="none" xmlns="http://www.w3.org/2000/svg">
  <rect width="512" height="512" rx="128" fill="#FAF5FF"/>
  <path d="M344 144C344 144 320 128 280 128C187.218 128 112 203.218 112 296C112 388.782 187.218 464 280 464C320 464 344 448 344 448C280 448 224 392 224 296C224 200 280 144 344 144Z" fill="#8B5CF6"/>
  <path d="M280 340C280 340 270 330 255 330C240 330 230 340 230 355C230 375 255 395 280 405C305 395 330 375 330 355C330 340 320 330 305 330C290 330 280 340 280 340Z" fill="#10B981"/>
</svg>
